<svg width="479.883" height="87.257" viewBox="0 0 479.883 87.257" xmlns="http://www.w3.org/2000/svg">
    <g id="svgGroup" stroke-linecap="round" fill-rule="evenodd" font-size="9pt" stroke="#32a194" stroke-width="0.25mm"
        fill="#32a194" style="stroke:#32a194;stroke-width:0.25mm;fill:#32a194">
        <path
            d="M 44.092 70.02 L 46.387 70.02 L 44.092 86.133 L 0 86.133 L 0 83.691 A 49.132 49.132 0 0 0 1.924 83.522 Q 4.569 83.232 5.784 82.726 A 4.538 4.538 0 0 0 5.811 82.715 A 4.396 4.396 0 0 0 6.985 81.978 A 3.447 3.447 0 0 0 8.105 79.834 A 5.679 5.679 0 0 0 8.17 79.367 Q 8.248 78.589 8.252 77.186 A 53.066 53.066 0 0 0 8.252 77.051 L 8.252 28.271 A 25.443 25.443 0 0 0 8.22 26.939 Q 8.118 25.012 7.696 24.179 A 2.132 2.132 0 0 0 7.666 24.121 A 3.093 3.093 0 0 0 6.586 22.984 Q 5.484 22.266 3.516 21.973 A 26.737 26.737 0 0 0 2.606 21.855 Q 1.511 21.732 0 21.631 L 0 19.189 A 206.165 206.165 0 0 0 4.914 19.606 Q 7.105 19.764 9.001 19.843 A 84.669 84.669 0 0 0 12.5 19.922 A 85.684 85.684 0 0 0 16.18 19.835 Q 18.091 19.753 20.296 19.591 A 208.07 208.07 0 0 0 25 19.189 L 25 21.631 A 49.132 49.132 0 0 0 23.076 21.8 Q 20.431 22.09 19.216 22.596 A 4.538 4.538 0 0 0 19.189 22.607 Q 17.241 23.484 16.896 25.479 A 4.628 4.628 0 0 0 16.895 25.488 A 5.679 5.679 0 0 0 16.83 25.955 Q 16.752 26.733 16.748 28.136 A 53.066 53.066 0 0 0 16.748 28.271 L 16.748 76.855 A 26.629 26.629 0 0 0 16.769 77.958 Q 16.834 79.517 17.1 80.184 A 1.553 1.553 0 0 0 17.188 80.371 A 3.209 3.209 0 0 0 18.632 81.841 Q 20.263 82.734 23.438 82.764 L 30.518 82.764 Q 35.156 82.715 37.354 81.592 A 7.177 7.177 0 0 0 39.06 80.347 Q 40.184 79.261 41.187 77.539 A 22.86 22.86 0 0 0 42.572 74.691 Q 43.423 72.609 44.092 70.02 Z"
            id="0" />
        <path
            d="M 94.824 77.637 L 91.406 66.846 L 68.164 66.846 L 64.844 76.221 A 49.036 49.036 0 0 0 64.368 77.613 Q 63.623 79.916 63.623 80.908 A 2.329 2.329 0 0 0 64.712 82.968 Q 65.333 83.381 66.309 83.594 Q 67.578 83.887 70.215 83.984 L 70.215 86.426 A 152.837 152.837 0 0 0 66.355 86.109 Q 63.133 85.889 60.693 85.889 A 69.862 69.862 0 0 0 57.71 85.958 Q 56.271 86.02 54.636 86.137 A 156.121 156.121 0 0 0 51.172 86.426 L 51.172 83.984 A 32.448 32.448 0 0 0 53.218 83.789 Q 55.14 83.539 56.33 83.083 A 5.097 5.097 0 0 0 57.275 82.617 A 5.325 5.325 0 0 0 58.312 81.622 Q 59.23 80.5 60.123 78.544 A 30.258 30.258 0 0 0 60.791 76.953 L 83.594 17.334 L 104.15 78.076 Q 105.615 82.178 108.057 83.057 A 9.386 9.386 0 0 0 109.264 83.424 Q 110.526 83.726 112.342 83.897 A 41.257 41.257 0 0 0 113.428 83.984 L 113.428 86.426 Q 106.543 85.693 101.27 85.693 A 93.272 93.272 0 0 0 96.313 85.834 Q 93.78 85.969 90.968 86.234 A 161.957 161.957 0 0 0 89.062 86.426 L 89.063 83.984 Q 91.748 83.789 93.213 83.35 Q 95.459 82.715 95.459 81.006 Q 95.459 79.694 94.831 77.658 A 24.212 24.212 0 0 0 94.824 77.637 Z M 80.713 33.105 L 69.336 63.721 L 90.43 63.721 L 80.713 33.105 Z"
            id="1" />
        <path
            d="M 167.92 86.133 L 142.627 86.133 L 142.627 83.691 A 49.132 49.132 0 0 0 144.551 83.522 Q 147.196 83.232 148.41 82.726 A 4.538 4.538 0 0 0 148.438 82.715 A 4.396 4.396 0 0 0 149.612 81.978 A 3.447 3.447 0 0 0 150.732 79.834 A 5.679 5.679 0 0 0 150.797 79.367 Q 150.875 78.589 150.879 77.186 A 53.066 53.066 0 0 0 150.879 77.051 L 150.879 28.564 A 25.443 25.443 0 0 0 150.847 27.232 Q 150.745 25.305 150.323 24.472 A 2.132 2.132 0 0 0 150.293 24.414 A 3.341 3.341 0 0 0 149.067 23.298 Q 147.188 22.22 143.064 21.95 A 37.406 37.406 0 0 0 142.627 21.924 L 142.627 19.482 L 168.994 19.482 A 45.358 45.358 0 0 1 172.257 19.593 Q 174.977 19.79 177.026 20.337 A 16.603 16.603 0 0 1 182.764 23.096 A 14.758 14.758 0 0 1 188.639 33.902 A 20.253 20.253 0 0 1 188.721 35.742 A 15.916 15.916 0 0 1 187.384 42.413 Q 184.897 47.869 177.783 50.537 A 26.76 26.76 0 0 1 180.882 51.349 Q 182.444 51.866 183.728 52.546 A 14.541 14.541 0 0 1 184.57 53.027 Q 187.646 54.98 189.6 58.252 A 16.795 16.795 0 0 1 191.886 66.392 A 20.008 20.008 0 0 1 191.895 66.992 A 18.625 18.625 0 0 1 187.646 79.004 A 18.083 18.083 0 0 1 178.871 84.838 A 23.812 23.812 0 0 1 176.27 85.498 Q 173.145 86.133 167.92 86.133 Z M 168.799 52.832 L 159.277 52.832 L 159.277 77.881 Q 159.277 81.055 160.352 81.982 Q 161.322 82.766 163.774 82.951 A 22.139 22.139 0 0 0 165.43 83.008 L 169.092 83.008 A 18.903 18.903 0 0 0 172.83 82.661 Q 175.085 82.206 176.824 81.154 A 10.268 10.268 0 0 0 178.613 79.785 A 13.396 13.396 0 0 0 182.167 73.825 Q 182.798 71.726 182.955 69.207 A 27.638 27.638 0 0 0 183.008 67.48 A 24.951 24.951 0 0 0 182.668 63.218 Q 181.892 58.752 179.346 56.104 A 9.047 9.047 0 0 0 176.097 53.985 Q 173.386 52.904 169.344 52.837 A 32.605 32.605 0 0 0 168.799 52.832 Z M 159.277 22.559 L 159.277 49.756 L 166.113 49.756 Q 171.094 49.756 173.486 48.633 Q 179.834 45.703 179.834 36.035 A 26.088 26.088 0 0 0 179.576 32.233 Q 179.29 30.299 178.689 28.736 A 10.797 10.797 0 0 0 177.051 25.83 A 7.891 7.891 0 0 0 173.815 23.537 Q 171.378 22.559 167.773 22.559 L 159.277 22.559 Z"
            id="3" />
        <path
            d="M 243.945 70.02 L 246.24 70.02 L 243.945 86.133 L 199.854 86.133 L 199.854 83.691 A 49.132 49.132 0 0 0 201.777 83.522 Q 204.423 83.232 205.637 82.726 A 4.538 4.538 0 0 0 205.664 82.715 A 4.396 4.396 0 0 0 206.838 81.978 A 3.447 3.447 0 0 0 207.959 79.834 A 5.679 5.679 0 0 0 208.023 79.367 Q 208.102 78.589 208.105 77.186 A 53.066 53.066 0 0 0 208.105 77.051 L 208.105 28.564 A 25.443 25.443 0 0 0 208.073 27.232 Q 207.972 25.305 207.55 24.472 A 2.132 2.132 0 0 0 207.52 24.414 A 3.341 3.341 0 0 0 206.293 23.298 Q 204.415 22.22 200.29 21.95 A 37.406 37.406 0 0 0 199.854 21.924 L 199.854 19.482 L 243.408 19.482 L 245.166 34.473 L 242.92 34.473 A 48.202 48.202 0 0 0 241.948 31.212 Q 240.911 28.164 239.715 26.351 A 9.239 9.239 0 0 0 238.867 25.244 Q 236.957 23.181 233.254 22.702 A 18.485 18.485 0 0 0 231.055 22.559 L 216.602 22.559 L 216.602 49.951 L 230.908 49.951 A 13.352 13.352 0 0 0 232.169 49.896 Q 233.899 49.731 234.668 49.072 Q 236.523 47.412 236.816 41.699 L 239.258 41.699 L 239.258 61.328 L 236.816 61.328 A 26.496 26.496 0 0 0 236.659 59.124 Q 236.41 56.989 235.806 55.669 A 5.294 5.294 0 0 0 235.4 54.932 Q 234.362 53.486 232.001 53.138 A 11.207 11.207 0 0 0 230.371 53.027 L 216.602 53.027 L 216.602 77.148 A 26.629 26.629 0 0 0 216.623 78.251 Q 216.688 79.81 216.953 80.477 A 1.553 1.553 0 0 0 217.041 80.664 A 3.209 3.209 0 0 0 218.485 82.134 Q 220.117 83.027 223.291 83.057 L 230.371 83.057 A 23.387 23.387 0 0 0 233.281 82.889 Q 236.827 82.442 238.672 80.811 Q 242.09 77.783 243.945 70.02 Z"
            id="4" />
        <path
            d="M 295.654 77.637 L 292.236 66.846 L 268.994 66.846 L 265.674 76.221 A 49.036 49.036 0 0 0 265.198 77.613 Q 264.453 79.916 264.453 80.908 A 2.329 2.329 0 0 0 265.542 82.968 Q 266.163 83.381 267.139 83.594 Q 268.408 83.887 271.045 83.984 L 271.045 86.426 A 152.837 152.837 0 0 0 267.185 86.109 Q 263.963 85.889 261.523 85.889 A 69.862 69.862 0 0 0 258.54 85.958 Q 257.101 86.02 255.466 86.137 A 156.121 156.121 0 0 0 252.002 86.426 L 252.002 83.984 A 32.448 32.448 0 0 0 254.048 83.789 Q 255.97 83.539 257.16 83.083 A 5.097 5.097 0 0 0 258.105 82.617 A 5.325 5.325 0 0 0 259.142 81.622 Q 260.06 80.5 260.953 78.544 A 30.258 30.258 0 0 0 261.621 76.953 L 284.424 17.334 L 304.98 78.076 Q 306.445 82.178 308.887 83.057 A 9.386 9.386 0 0 0 310.094 83.424 Q 311.356 83.726 313.172 83.897 A 41.257 41.257 0 0 0 314.258 83.984 L 314.258 86.426 Q 307.373 85.693 302.1 85.693 A 93.272 93.272 0 0 0 297.144 85.834 Q 294.61 85.969 291.798 86.234 A 161.957 161.957 0 0 0 289.893 86.426 L 289.893 83.984 Q 292.578 83.789 294.043 83.35 Q 296.289 82.715 296.289 81.006 Q 296.289 79.694 295.661 77.658 A 24.212 24.212 0 0 0 295.654 77.637 Z M 281.543 33.105 L 270.166 63.721 L 291.26 63.721 L 281.543 33.105 Z"
            id="5" />
        <path
            d="M 366.553 28.271 L 366.553 64.844 Q 366.553 70.611 365.555 73.925 A 13.368 13.368 0 0 1 365.381 74.463 A 17.523 17.523 0 0 1 357.08 84.326 A 22.819 22.819 0 0 1 350.433 86.685 Q 347.712 87.22 344.605 87.254 A 38.623 38.623 0 0 1 344.189 87.256 A 30.358 30.358 0 0 1 337.001 86.454 A 20.281 20.281 0 0 1 326.611 80.469 Q 323.242 76.807 322.363 72.119 A 30.098 30.098 0 0 1 322.029 69.506 Q 321.914 68.161 321.885 66.65 A 53.488 53.488 0 0 1 321.875 65.625 L 321.875 28.271 A 25.443 25.443 0 0 0 321.843 26.939 Q 321.741 25.012 321.319 24.179 A 2.132 2.132 0 0 0 321.289 24.121 A 3.093 3.093 0 0 0 320.209 22.984 Q 319.107 22.266 317.139 21.973 A 26.737 26.737 0 0 0 316.229 21.855 Q 315.134 21.732 313.623 21.631 L 313.623 19.189 A 206.165 206.165 0 0 0 318.537 19.606 Q 320.728 19.764 322.624 19.843 A 84.669 84.669 0 0 0 326.123 19.922 A 85.684 85.684 0 0 0 329.803 19.835 Q 331.714 19.753 333.919 19.591 A 208.07 208.07 0 0 0 338.623 19.189 L 338.623 21.631 A 49.132 49.132 0 0 0 336.699 21.8 Q 334.054 22.09 332.84 22.596 A 4.538 4.538 0 0 0 332.812 22.607 Q 330.864 23.484 330.519 25.479 A 4.628 4.628 0 0 0 330.518 25.488 A 5.679 5.679 0 0 0 330.453 25.955 Q 330.375 26.733 330.371 28.136 A 53.066 53.066 0 0 0 330.371 28.271 L 330.371 66.455 Q 330.371 71.16 331.102 73.824 A 9.432 9.432 0 0 0 331.543 75.098 Q 333.398 79.297 337.939 81.25 A 17.007 17.007 0 0 0 341.981 82.469 Q 343.801 82.791 345.866 82.811 A 28.376 28.376 0 0 0 346.143 82.812 Q 351.123 82.813 355.005 81.079 A 14.695 14.695 0 0 0 358.217 79.151 A 11.643 11.643 0 0 0 360.84 76.221 A 12.777 12.777 0 0 0 362.245 73.028 Q 363.184 69.874 363.184 65.332 L 363.184 28.271 A 25.443 25.443 0 0 0 363.151 26.939 Q 363.05 25.012 362.628 24.179 A 2.132 2.132 0 0 0 362.598 24.121 A 3.093 3.093 0 0 0 361.517 22.984 Q 360.415 22.266 358.447 21.973 A 26.737 26.737 0 0 0 357.537 21.855 Q 356.442 21.732 354.932 21.631 L 354.932 19.189 A 324.631 324.631 0 0 0 358.13 19.403 Q 362.544 19.674 365.028 19.678 A 45.926 45.926 0 0 0 365.088 19.678 Q 368.506 19.678 374.805 19.189 L 374.805 21.631 A 49.132 49.132 0 0 0 372.881 21.8 Q 370.235 22.09 369.021 22.596 A 4.538 4.538 0 0 0 368.994 22.607 A 4.396 4.396 0 0 0 367.82 23.344 A 3.447 3.447 0 0 0 366.699 25.488 A 4.762 4.762 0 0 0 366.639 25.904 Q 366.553 26.701 366.553 28.271 Z"
            id="6" />
        <path
            d="M 414.258 22.559 L 407.959 22.559 L 407.959 77.344 A 31.165 31.165 0 0 0 407.985 78.663 Q 408.064 80.527 408.389 81.321 A 1.813 1.813 0 0 0 408.496 81.543 A 3.659 3.659 0 0 0 409.699 82.545 Q 411.719 83.669 416.211 83.984 L 416.211 86.426 A 220.258 220.258 0 0 0 411.675 86.04 Q 407.151 85.705 403.924 85.694 A 63.794 63.794 0 0 0 403.711 85.693 Q 398.975 85.693 391.211 86.426 L 391.211 83.984 A 48.642 48.642 0 0 0 393.13 83.813 Q 395.776 83.521 397.021 83.008 A 4.727 4.727 0 0 0 398.15 82.308 A 3.309 3.309 0 0 0 399.316 80.127 A 5.679 5.679 0 0 0 399.38 79.66 Q 399.459 78.882 399.463 77.479 A 53.066 53.066 0 0 0 399.463 77.344 L 399.463 22.559 L 394.092 22.559 A 16.437 16.437 0 0 0 390.819 22.887 Q 388.932 23.287 387.524 24.17 A 7.831 7.831 0 0 0 385.156 26.465 A 16.232 16.232 0 0 0 384.094 28.348 Q 383.088 30.412 382.115 33.485 A 67.269 67.269 0 0 0 381.738 34.717 L 379.297 34.717 L 381.982 19.482 L 425.732 19.482 L 428.516 34.717 L 426.123 34.717 Q 424.561 28.857 422.852 26.367 A 9.976 9.976 0 0 0 421.421 24.703 A 7.073 7.073 0 0 0 418.945 23.193 A 8.429 8.429 0 0 0 417.62 22.832 Q 416.234 22.563 414.319 22.559 A 27.745 27.745 0 0 0 414.258 22.559 Z"
            id="7" />
        <path
            d="M 477.588 70.02 L 479.883 70.02 L 477.588 86.133 L 433.496 86.133 L 433.496 83.691 A 49.132 49.132 0 0 0 435.42 83.522 Q 438.065 83.232 439.28 82.726 A 4.538 4.538 0 0 0 439.307 82.715 A 4.396 4.396 0 0 0 440.481 81.978 A 3.447 3.447 0 0 0 441.602 79.834 A 5.679 5.679 0 0 0 441.666 79.367 Q 441.744 78.589 441.748 77.186 A 53.066 53.066 0 0 0 441.748 77.051 L 441.748 28.564 A 25.443 25.443 0 0 0 441.716 27.232 Q 441.614 25.305 441.193 24.472 A 2.132 2.132 0 0 0 441.162 24.414 A 3.341 3.341 0 0 0 439.936 23.298 Q 438.057 22.22 433.933 21.95 A 37.406 37.406 0 0 0 433.496 21.924 L 433.496 19.482 L 477.051 19.482 L 478.809 34.473 L 476.563 34.473 A 48.202 48.202 0 0 0 475.591 31.212 Q 474.554 28.164 473.357 26.351 A 9.239 9.239 0 0 0 472.51 25.244 Q 470.6 23.181 466.897 22.702 A 18.485 18.485 0 0 0 464.697 22.559 L 450.244 22.559 L 450.244 49.951 L 464.551 49.951 A 13.352 13.352 0 0 0 465.811 49.896 Q 467.542 49.731 468.311 49.072 Q 470.166 47.412 470.459 41.699 L 472.9 41.699 L 472.9 61.328 L 470.459 61.328 A 26.496 26.496 0 0 0 470.302 59.124 Q 470.052 56.989 469.449 55.669 A 5.294 5.294 0 0 0 469.043 54.932 Q 468.005 53.486 465.644 53.138 A 11.207 11.207 0 0 0 464.014 53.027 L 450.244 53.027 L 450.244 77.148 A 26.629 26.629 0 0 0 450.265 78.251 Q 450.33 79.81 450.596 80.477 A 1.553 1.553 0 0 0 450.684 80.664 A 3.209 3.209 0 0 0 452.128 82.134 Q 453.759 83.027 456.934 83.057 L 464.014 83.057 A 23.387 23.387 0 0 0 466.924 82.889 Q 470.47 82.442 472.314 80.811 Q 475.732 77.783 477.588 70.02 Z M 456.396 13.721 L 451.367 13.721 L 463.965 0 L 476.074 0 L 456.396 13.721 Z"
            id="8" />
    </g>
</svg>