<svg width="15.969" height="10.711" viewBox="0 0 15.969 10.711" xmlns="http://www.w3.org/2000/svg">
    <g id="svgGroup" stroke-linecap="round" fill-rule="evenodd" font-size="9pt" stroke="#32a194" stroke-width="0.1mm"
        fill="#32a194" style="stroke:#32a194;stroke-width:0.1mm;fill:#32a194">
        <path
            d="M 7.055 8.133 L 7.422 8.133 L 7.055 10.711 L 0 10.711 L 0 10.32 Q 0.666 10.274 0.925 10.166 A 0.723 0.723 0 0 0 0.93 10.164 A 0.703 0.703 0 0 0 1.118 10.046 A 0.552 0.552 0 0 0 1.297 9.703 A 0.909 0.909 0 0 0 1.307 9.628 Q 1.32 9.504 1.32 9.28 A 8.447 8.447 0 0 0 1.32 9.258 L 1.32 1.453 A 4.071 4.071 0 0 0 1.315 1.24 Q 1.299 0.932 1.231 0.798 A 0.341 0.341 0 0 0 1.227 0.789 A 0.495 0.495 0 0 0 1.054 0.607 Q 0.901 0.508 0.645 0.459 A 2.134 2.134 0 0 0 0.563 0.445 A 4.278 4.278 0 0 0 0.417 0.427 Q 0.253 0.408 0.032 0.393 A 14.051 14.051 0 0 0 0 0.391 L 0 0 A 32.986 32.986 0 0 0 0.786 0.067 Q 1.137 0.092 1.44 0.105 A 13.547 13.547 0 0 0 2 0.117 Q 2.781 0.117 4 0 L 4 0.391 Q 3.334 0.437 3.075 0.545 A 0.723 0.723 0 0 0 3.07 0.547 Q 2.759 0.687 2.703 1.006 A 0.706 0.706 0 0 0 2.703 1.008 A 0.909 0.909 0 0 0 2.693 1.083 Q 2.68 1.207 2.68 1.431 A 8.447 8.447 0 0 0 2.68 1.453 L 2.68 9.227 Q 2.68 9.618 2.736 9.759 A 0.248 0.248 0 0 0 2.75 9.789 Q 2.922 10.164 3.75 10.172 L 4.883 10.172 Q 5.522 10.165 5.871 10.031 A 1.088 1.088 0 0 0 5.977 9.984 Q 6.237 9.851 6.462 9.536 A 2.581 2.581 0 0 0 6.59 9.336 Q 6.867 8.859 7.055 8.133 Z M 12.133 10.711 L 8.086 10.711 L 8.086 10.32 Q 8.752 10.274 9.011 10.166 A 0.723 0.723 0 0 0 9.016 10.164 A 0.703 0.703 0 0 0 9.204 10.046 A 0.552 0.552 0 0 0 9.383 9.703 A 0.909 0.909 0 0 0 9.393 9.628 Q 9.406 9.504 9.406 9.28 A 8.447 8.447 0 0 0 9.406 9.258 L 9.406 1.5 A 4.071 4.071 0 0 0 9.401 1.287 Q 9.385 0.979 9.317 0.845 A 0.341 0.341 0 0 0 9.312 0.836 A 0.535 0.535 0 0 0 9.116 0.657 Q 8.816 0.485 8.156 0.442 A 5.986 5.986 0 0 0 8.086 0.437 L 8.086 0.047 L 12.305 0.047 A 7.257 7.257 0 0 1 12.827 0.065 Q 13.072 0.082 13.282 0.118 A 3.336 3.336 0 0 1 13.59 0.184 A 2.656 2.656 0 0 1 14.508 0.625 A 2.361 2.361 0 0 1 15.448 2.354 A 3.24 3.24 0 0 1 15.461 2.648 A 2.547 2.547 0 0 1 15.247 3.716 Q 14.849 4.589 13.711 5.016 Q 14.268 5.128 14.662 5.337 A 2.327 2.327 0 0 1 14.797 5.414 A 2.475 2.475 0 0 1 15.602 6.25 A 2.687 2.687 0 0 1 15.967 7.552 A 3.201 3.201 0 0 1 15.969 7.648 A 2.98 2.98 0 0 1 15.289 9.57 A 2.893 2.893 0 0 1 13.885 10.504 A 3.81 3.81 0 0 1 13.469 10.609 Q 12.992 10.706 12.208 10.711 A 13.391 13.391 0 0 1 12.133 10.711 Z M 12.273 5.383 L 10.75 5.383 L 10.75 9.391 A 2.359 2.359 0 0 0 10.758 9.596 Q 10.788 9.931 10.922 10.047 A 0.52 0.52 0 0 0 11.068 10.126 Q 11.222 10.183 11.47 10.202 A 3.542 3.542 0 0 0 11.734 10.211 L 12.32 10.211 Q 13.067 10.211 13.557 9.914 A 1.643 1.643 0 0 0 13.844 9.695 Q 14.547 9.023 14.547 7.727 Q 14.547 6.923 14.289 6.385 A 1.815 1.815 0 0 0 13.961 5.906 A 1.448 1.448 0 0 0 13.441 5.567 Q 12.979 5.383 12.273 5.383 Z M 10.75 0.539 L 10.75 4.891 L 11.844 4.891 Q 12.533 4.891 12.912 4.756 A 1.22 1.22 0 0 0 13.023 4.711 Q 13.934 4.291 14.028 3.003 A 4.229 4.229 0 0 0 14.039 2.695 A 4.174 4.174 0 0 0 13.998 2.087 Q 13.952 1.778 13.856 1.528 A 1.727 1.727 0 0 0 13.594 1.062 A 1.263 1.263 0 0 0 13.076 0.696 Q 12.863 0.61 12.594 0.571 A 3.403 3.403 0 0 0 12.109 0.539 L 10.75 0.539 Z"
            vector-effect="non-scaling-stroke" />
    </g>
</svg>